# xmcd
#
# Track frame offsets:
# 150
# 15882
# 31391
# 48398
# 63948
# 91527
# 108713
# 127286
# 142795
# 153231
# 154285
# 171369
# 184989
# 214745
#
# Disc length: 2983 seconds
#
# Revision: 1
# Processed by: cddbd v1.5.1PL0 Copyright (c) Steve Scherf et al.
# Submitted via: CedeCatalogueitor 2.6.0.6 http://personales.ya.com/cdcatalogueitor
#
DISCID=b80ba50e
DTITLE=Estrella Morente - Mi Cante Y Un Poema
DYEAR=1900
DGENRE=
TTITLE0=Coquinas
TTITLE1=En Lo Alto Del Cerro
TTITLE2=Moguer
TTITLE3=La Noche
TTITLE4=Bulerias De La Bola
TTITLE5=Alcazaba
TTITLE6=A Pastora
TTITLE7=Peregrinos
TTITLE8=A Que Niegas El Delirio
TTITLE9=Tangos De Pepito
TTITLE10=Soleá Grana
TTITLE11=Galeria
TTITLE12=Que Llegue El Domingo
TTITLE13=Las Llamas Llegan Al Cielo
EXTD=
EXTT0=
EXTT1=
EXTT2=
EXTT3=
EXTT4=
EXTT5=
EXTT6=
EXTT7=
EXTT8=
EXTT9=
EXTT10=
EXTT11=
EXTT12=
EXTT13=
PLAYORDER=
